<svg xmlns="http://www.w3.org/2000/svg" width="219" height="87" viewBox="0 0 219 87">
  <g id="company_tag" transform="translate(-160)">
    <rect id="Rectangle_1" data-name="Rectangle 1" width="219" height="87" transform="translate(160)" fill="#fff"/>
    <g id="Group_21" data-name="Group 21" transform="translate(202.345 11.549)">
      <g id="Group_20" data-name="Group 20" transform="translate(0 4.619)">
        <line id="Line_12" data-name="Line 12" y2="56" transform="translate(-0.345 -0.168)" fill="none" stroke="#000" stroke-miterlimit="10" stroke-width="3"/>
        <line id="Line_13" data-name="Line 13" y2="56" transform="translate(29.655 -0.168)" fill="none" stroke="#000" stroke-miterlimit="10" stroke-width="3"/>
        <line id="Line_14" data-name="Line 14" x2="29.257" transform="translate(0.385 16.168)" fill="none" stroke="#000" stroke-miterlimit="10" stroke-width="3"/>
        <line id="Line_15" data-name="Line 15" x2="15" transform="translate(-0.345 27.832)" fill="none" stroke="#000" stroke-miterlimit="10" stroke-width="3"/>
        <line id="Line_16" data-name="Line 16" x2="29.257" transform="translate(0 38.881)" fill="none" stroke="#000" stroke-miterlimit="10" stroke-width="3"/>
      </g>
      <path id="Path_23" data-name="Path 23" d="M-10.188-11.268V0H-11.52V-11.268h-3.168V-12.6h7.6v1.332ZM3.132,0V-5.886H-3.1V0H-4.428V-12.6H-3.1v5.382H3.132V-12.6H4.464V0Zm4,0V-12.6h7.506v1.332H8.46v4.05h5.616v1.332H8.46v4.554h6.228V0ZM-15.678,21V15.114h-6.228V21h-1.332V8.4h1.332v5.382h6.228V8.4h1.332V21Zm4,0V8.4h7.506V9.732H-10.35v4.05h5.616v1.332H-10.35v4.554h6.228V21Zm10.224,0V8.4H-.126V19.668h6.21V21ZM8.748,21V8.4H10.08V21Zm5.724,0H12.744l4.41-6.354L12.816,8.4h1.728l3.438,5.022L21.438,8.4h1.728L18.81,14.646,23.238,21H21.492l-3.51-5.13Zm-48.69,21-7.7-10.206V42h-1.3V29.4h1.08l7.74,10.206V29.4h1.3V42Zm3.78,0V29.4h7.506v1.332h-6.174v4.05h5.616v1.332h-5.616v4.554h6.228V42Zm14.724-11.268V42h-1.332V30.732h-3.168V29.4h7.6v1.332ZM2.016,42H.612l-2.754-9.864L-4.968,42H-6.426L-9.954,29.4h1.476l2.808,9.882L-2.916,29.4H-1.44l2.754,9.882L4.068,29.4H5.544Zm16.578-6.354a6.457,6.457,0,0,0-.288-1.944,4.768,4.768,0,0,0-.855-1.611,4.161,4.161,0,0,0-1.413-1.107,4.455,4.455,0,0,0-1.98-.414,4.436,4.436,0,0,0-1.953.4,4.089,4.089,0,0,0-1.4,1.1,4.756,4.756,0,0,0-.855,1.62,6.766,6.766,0,0,0,0,3.906,4.855,4.855,0,0,0,.855,1.629,4.137,4.137,0,0,0,1.4,1.116,4.354,4.354,0,0,0,1.953.414,4.539,4.539,0,0,0,1.98-.4,4.02,4.02,0,0,0,1.413-1.107,4.855,4.855,0,0,0,.855-1.629A6.607,6.607,0,0,0,18.594,35.646Zm1.35-.018a8.031,8.031,0,0,1-.369,2.43,6.043,6.043,0,0,1-1.107,2.061,5.475,5.475,0,0,1-1.845,1.431,5.783,5.783,0,0,1-2.565.54,5.667,5.667,0,0,1-2.547-.54,5.526,5.526,0,0,1-1.827-1.431,6.043,6.043,0,0,1-1.107-2.061,8.031,8.031,0,0,1-.369-2.43,7.858,7.858,0,0,1,.369-2.412,5.972,5.972,0,0,1,1.107-2.034,5.478,5.478,0,0,1,1.827-1.413,5.748,5.748,0,0,1,2.547-.531,5.866,5.866,0,0,1,2.565.531,5.429,5.429,0,0,1,1.845,1.413,5.972,5.972,0,0,1,1.107,2.034A7.858,7.858,0,0,1,19.944,35.628Zm6.966.99H23.94V42H22.608V29.4h4.7a3.437,3.437,0,0,1,1.395.288A3.652,3.652,0,0,1,30.618,31.6a3.584,3.584,0,0,1,.1,2.556,3.835,3.835,0,0,1-.513,1,3.463,3.463,0,0,1-.783.783,3.664,3.664,0,0,1-1,.513L31.356,42H29.862Zm-2.97-1.332h3.366a2.188,2.188,0,0,0,.882-.18A2.28,2.28,0,0,0,29.394,33.9a2.251,2.251,0,0,0,0-1.764,2.309,2.309,0,0,0-.486-.72,2.441,2.441,0,0,0-.72-.5,2.1,2.1,0,0,0-.882-.189H23.94ZM34.02,42V29.4h1.332v6.12l6.084-6.12h1.746l-6.12,6.12L43.218,42H41.364l-6.012-6.444V42Z" transform="translate(89.655 17.451)" fill="#3a1515"/>
    </g>
  </g>
</svg>
