<svg xmlns="http://www.w3.org/2000/svg" xmlns:xlink="http://www.w3.org/1999/xlink" width="274.721" height="99.545" viewBox="0 0 274.721 99.545">
  <defs>
    <filter id="Helix_text" x="0" y="0" width="274.721" height="99.545" filterUnits="userSpaceOnUse">
      <feOffset input="SourceAlpha"/>
      <feGaussianBlur stdDeviation="5" result="blur"/>
      <feFlood flood-color="#ff6f00"/>
      <feComposite operator="in" in2="blur"/>
      <feComposite in="SourceGraphic"/>
    </filter>
  </defs>
  <g transform="matrix(1, 0, 0, 1, 0, 0)" filter="url(#Helix_text)">
    <path id="Helix_text-2" data-name="Helix_text" d="M-63.292,0H-75.487V-28.44H-106V0h-12.195V-65.07H-106v27.99h30.51V-65.07h12.195ZM-22.7-46.89a22.418,22.418,0,0,1,8.032,1.4,17.589,17.589,0,0,1,6.323,4.073,18.6,18.6,0,0,1,4.14,6.57,24.811,24.811,0,0,1,1.485,8.888,16.083,16.083,0,0,1-.112,2.092,3.348,3.348,0,0,1-.405,1.305,1.639,1.639,0,0,1-.787.675,3.357,3.357,0,0,1-1.26.2h-28.53q.5,7.11,3.825,10.44a11.922,11.922,0,0,0,8.82,3.33,15.276,15.276,0,0,0,4.658-.63,21.839,21.839,0,0,0,3.42-1.4q1.462-.765,2.565-1.395a4.3,4.3,0,0,1,2.138-.63,2.408,2.408,0,0,1,1.17.27,2.585,2.585,0,0,1,.855.765l3.24,4.05a18.525,18.525,0,0,1-4.14,3.623A23.218,23.218,0,0,1-12.06-.923,26.194,26.194,0,0,1-17.145.315a36.409,36.409,0,0,1-5.017.36,24.664,24.664,0,0,1-8.955-1.6,20.046,20.046,0,0,1-7.2-4.725,22.168,22.168,0,0,1-4.815-7.74,29.953,29.953,0,0,1-1.755-10.687,25.557,25.557,0,0,1,1.53-8.888,21.371,21.371,0,0,1,4.388-7.245,20.656,20.656,0,0,1,6.975-4.883A22.975,22.975,0,0,1-22.7-46.89Zm.225,7.965a10.278,10.278,0,0,0-7.605,2.745,13.54,13.54,0,0,0-3.51,7.785h20.88a13.851,13.851,0,0,0-.585-4.073,9.394,9.394,0,0,0-1.8-3.353,8.519,8.519,0,0,0-3.06-2.272A10.421,10.421,0,0,0-22.477-38.925ZM27.158-66.87V0H16.043V-66.87Zm33.39,20.7V0H49.433V-46.17Zm1.665-13.455a6.333,6.333,0,0,1-.585,2.7,7.421,7.421,0,0,1-1.553,2.2A7.42,7.42,0,0,1,57.8-53.213a6.973,6.973,0,0,1-2.79.563,6.7,6.7,0,0,1-2.722-.562,7.212,7.212,0,0,1-2.228-1.508,7.289,7.289,0,0,1-1.507-2.2,6.547,6.547,0,0,1-.562-2.7,6.973,6.973,0,0,1,.563-2.79,7.141,7.141,0,0,1,1.507-2.25,7.212,7.212,0,0,1,2.228-1.508,6.7,6.7,0,0,1,2.722-.562,6.973,6.973,0,0,1,2.79.562,7.421,7.421,0,0,1,2.273,1.508,7.259,7.259,0,0,1,1.553,2.25A6.742,6.742,0,0,1,62.213-59.625Zm30.825,35.82L77.873-46.17h10.71a3.717,3.717,0,0,1,1.8.337,2.958,2.958,0,0,1,1.035,1.1L101.093-29.3a12.6,12.6,0,0,1,.563-1.53,10.978,10.978,0,0,1,.832-1.53l7.785-12.15a4.288,4.288,0,0,1,1.125-1.26,2.469,2.469,0,0,1,1.44-.4h10.215L107.843-24.3,123.683,0h-10.71a2.923,2.923,0,0,1-1.957-.63,5.947,5.947,0,0,1-1.237-1.44l-9.81-16.065a8.609,8.609,0,0,1-1.125,2.7L90.2-2.07A7.169,7.169,0,0,1,88.988-.653a2.58,2.58,0,0,1-1.8.653H77.243Z" transform="translate(134.19 82.87)" fill="none" stroke="#ff0c0c" stroke-width="2"/>
  </g>
</svg>
