<svg xmlns="http://www.w3.org/2000/svg" xmlns:xlink="http://www.w3.org/1999/xlink" width="198.635" height="99.545" viewBox="0 0 198.635 99.545">
  <defs>
    <filter id="The_text" x="0" y="0" width="198.635" height="99.545" filterUnits="userSpaceOnUse">
      <feOffset input="SourceAlpha"/>
      <feGaussianBlur stdDeviation="5" result="blur"/>
      <feFlood flood-color="#ff6f00"/>
      <feComposite operator="in" in2="blur"/>
      <feComposite in="SourceGraphic"/>
    </filter>
  </defs>
  <g transform="matrix(1, 0, 0, 1, 0, 0)" filter="url(#The_text)">
    <path id="The_text-2" data-name="The_text" d="M-32.985-65.07v9.945H-52.56V0h-12.1V-55.125H-84.33V-65.07ZM-16.92,0V-66.87H-5.805v25.7a23.521,23.521,0,0,1,5.94-4.14,17.214,17.214,0,0,1,7.6-1.575,16.552,16.552,0,0,1,6.705,1.282,13.249,13.249,0,0,1,4.882,3.6,15.825,15.825,0,0,1,2.97,5.535,23.523,23.523,0,0,1,1.012,7.087V0H12.195V-29.385a9.861,9.861,0,0,0-1.958-6.548A7.256,7.256,0,0,0,4.365-38.25a11.574,11.574,0,0,0-5.4,1.3,19.353,19.353,0,0,0-4.77,3.555V0ZM62.325-46.89a22.418,22.418,0,0,1,8.032,1.4,17.589,17.589,0,0,1,6.323,4.073,18.6,18.6,0,0,1,4.14,6.57,24.811,24.811,0,0,1,1.485,8.888,16.083,16.083,0,0,1-.112,2.092,3.348,3.348,0,0,1-.4,1.305,1.639,1.639,0,0,1-.788.675,3.357,3.357,0,0,1-1.26.2H51.21q.5,7.11,3.825,10.44a11.922,11.922,0,0,0,8.82,3.33,15.276,15.276,0,0,0,4.658-.63,21.839,21.839,0,0,0,3.42-1.4Q73.4-10.71,74.5-11.34a4.3,4.3,0,0,1,2.138-.63,2.408,2.408,0,0,1,1.17.27,2.585,2.585,0,0,1,.855.765l3.24,4.05a18.525,18.525,0,0,1-4.14,3.623,23.218,23.218,0,0,1-4.793,2.34A26.194,26.194,0,0,1,67.882.315a36.409,36.409,0,0,1-5.017.36,24.664,24.664,0,0,1-8.955-1.6,20.046,20.046,0,0,1-7.2-4.725,22.168,22.168,0,0,1-4.815-7.74A29.953,29.953,0,0,1,40.14-24.075a25.557,25.557,0,0,1,1.53-8.888,21.371,21.371,0,0,1,4.388-7.245,20.656,20.656,0,0,1,6.975-4.883A22.975,22.975,0,0,1,62.325-46.89Zm.225,7.965a10.278,10.278,0,0,0-7.605,2.745,13.54,13.54,0,0,0-3.51,7.785h20.88a13.851,13.851,0,0,0-.585-4.073,9.394,9.394,0,0,0-1.8-3.353,8.519,8.519,0,0,0-3.06-2.272A10.422,10.422,0,0,0,62.55-38.925Z" transform="translate(100.33 82.87)" fill="none" stroke="#ff0c0c" stroke-width="2"/>
  </g>
</svg>
